# xmcd
#
# Track frame offsets:
#	150
#	17444
#	28747
#	39489
#	56762
#	79498
#	94677
#	114451
#	128402
#	140452
#	155778
#	165848
#	182287
#	198634
#	219496
#	235759
#	247010
#	255372
#
# Disc length: 3429 seconds
#
# Revision: 0
# Processed by: cddbd v1.5.2PL0 Copyright (c) Steve Scherf et al.
# Submitted via: dBpowerAMP V4.0
#
DISCID=e80d6312
DTITLE=Jerry Faires - Radio
DYEAR=2005
DGENRE=Country and Spoken
TTITLE0=01 Radio (Intro) - Precious Memories Was a Song
TTITLE1=02 Player Without a Name
TTITLE2=03 My Baby's Gone
TTITLE3=04 Wild Honduras
TTITLE4=05 Bridges
TTITLE5=06 Rose of Michoacan
TTITLE6=07 La Esquina del Viento
TTITLE7=08 Lover's Song
TTITLE8=09 Bluebonnet Waltz
TTITLE9=10 Mama, She Baked Pies
TTITLE10=11 Jitterbug Mind
TTITLE11=12 I'll Go Down Easy
TTITLE12=13 Love of Beauty
TTITLE13=14 Come Back to Old Santa Fe
TTITLE14=15 No Room for Regrets
TTITLE15=16 Weathered Old Caboose Behind the Train
TTITLE16=17 The Hobo's Convention
TTITLE17=18 Radio (Outro)
EXTD=
EXTT0=
EXTT1=
EXTT2=
EXTT3=
EXTT4=
EXTT5=
EXTT6=
EXTT7=
EXTT8=
EXTT9=
EXTT10=
EXTT11=
EXTT12=
EXTT13=
EXTT14=
EXTT15=
EXTT16=
EXTT17=
PLAYORDER=
